<?xml version="1.0" encoding="utf-8"?>
<!-- Generator: Adobe Illustrator 25.0.0, SVG Export Plug-In . SVG Version: 6.00 Build 0)  -->
<svg version="1.1" xmlns="http://www.w3.org/2000/svg" xmlns:xlink="http://www.w3.org/1999/xlink" x="0px" y="0px"
	 viewBox="0 0 500 500" style="enable-background:new 0 0 500 500;" xml:space="preserve">
<style type="text/css">
	.st0{fill:#C6C6F7;}
	.st1{fill:#5757EA;}
	.st2{fill:#8D8FFF;}
	.st3{opacity:0.3;fill:#5757EA;}
	.st4{fill:none;stroke:#506ED8;stroke-width:2;stroke-linecap:round;stroke-miterlimit:10;}
	.st5{fill:none;stroke:#FFFFFF;stroke-width:2;stroke-linecap:round;stroke-miterlimit:10;}
	.st6{fill:#7C3301;}
	.st7{fill:#602700;}
	.st8{fill:#FFA0A4;}
	.st9{fill:#F48C93;}
	.st10{fill:none;stroke:#DD7A81;stroke-width:0.5;stroke-linecap:round;stroke-linejoin:round;stroke-miterlimit:10;}
	.st11{fill:#372834;}
	.st12{fill:#FFFFFF;stroke:#934735;stroke-width:0.5;stroke-linecap:round;stroke-linejoin:round;stroke-miterlimit:10;}
	.st13{fill:#450023;}
	.st14{fill:none;stroke:#FFFFFF;stroke-width:0.5;stroke-linecap:round;stroke-linejoin:round;stroke-miterlimit:10;}
	.st15{fill:#6C27A8;}
	.st16{fill:#4D1884;}
	.st17{fill:#FFC96C;}
	.st18{fill:#F2B255;}
	.st19{fill:none;stroke:#C17E25;stroke-width:0.5;stroke-linecap:round;stroke-linejoin:round;stroke-miterlimit:10;}
	.st20{fill:#B256DF;}
	.st21{fill:none;stroke:#DDDDDD;stroke-width:0.5;stroke-linecap:round;stroke-linejoin:round;stroke-miterlimit:10;}
	.st22{fill:#D999FF;}
	.st23{fill:none;stroke:#EF8A66;stroke-width:0.5;stroke-linecap:round;stroke-linejoin:round;stroke-miterlimit:10;}
	.st24{fill:#DB9B45;}
	.st25{fill:none;stroke:#2D2B82;stroke-width:0.5;stroke-linecap:round;stroke-linejoin:round;stroke-miterlimit:10;}
	.st26{fill:none;stroke:#E8E8E8;stroke-width:0.5;stroke-linecap:round;stroke-linejoin:round;stroke-miterlimit:10;}
	.st27{fill:none;stroke:#4747A8;stroke-width:0.5;stroke-linecap:round;stroke-miterlimit:10;}
	.st28{fill:#1818A0;}
	.st29{fill:none;stroke:#FFFFFF;stroke-width:0.5;stroke-linecap:round;stroke-miterlimit:10;}
	.st30{fill:#FFFFFF;}
</style>
<g id="BACKGROUND">
</g>
<g id="OBJECT">
	<g>
		<g>
			<g>
				<path class="st0" d="M401.7,168c-5.8,40.4-20.3,52-16.7,81.9c2.5,20.3,13.9,37,22.3,60.6c10.5,29.2-2.4,85.4-76.9,88.3
					c-41.5,1.6-84.3-22.1-124.7-12.3c-72.3,17.5-103.7-19.3-108.7-38.8c-15.7-60.7,40-69.5,13.2-115.3
					C71.1,165.7,77.1,59.9,202.9,95c66,18.4,118.6-57.2,171.4-21.1C409.6,98,405.9,138.7,401.7,168z"/>
			</g>
			<circle class="st0" cx="90.8" cy="89.7" r="11.8"/>
			<path class="st0" d="M87.4,116.7c0,3.5-2.8,6.3-6.3,6.3c-3.5,0-6.3-2.8-6.3-6.3c0-3.5,2.8-6.3,6.3-6.3
				C84.5,110.4,87.4,113.2,87.4,116.7z"/>
			<circle class="st0" cx="418.5" cy="305.4" r="7.4"/>
			<path class="st0" d="M429.2,323.4c0,2.4-1.9,4.3-4.3,4.3s-4.3-1.9-4.3-4.3s1.9-4.3,4.3-4.3S429.2,321,429.2,323.4z"/>
		</g>
		<g>
			<path class="st1" d="M328.3,335.1l-168-0.4c-3.2,0-5.8-2.6-5.8-5.7L155,88.1c0-3.2,2.6-5.8,5.7-5.8l168,0.4
				c3.2,0,5.8,2.6,5.8,5.7L334,329.3C334.2,332.5,331.5,335,328.3,335.1z"/>
			<path class="st2" d="M145,96.3l-0.5,223.5c0,4.2,3.4,7.6,7.5,7.6l165.2,0.3c3.7,0.1,6.8-3,6.7-6.6l0.5-224.6
				c0-3.5-2.9-6.3-6.4-6.3l-166.6-0.4C147.9,89.7,144.9,92.6,145,96.3z M165.1,303.8c-3.3,0.5-6.2-2.4-5.8-5.7
				c0.3-2.2,2-3.8,4.2-4.2c3.3-0.5,6.2,2.4,5.8,5.7C168.9,301.8,167.2,303.5,165.1,303.8z M165.2,266.9c-3.3,0.5-6.2-2.4-5.8-5.7
				c0.3-2.2,2-3.8,4.2-4.2c3.3-0.5,6.2,2.4,5.8,5.7C169,264.9,167.3,266.6,165.2,266.9z M165.2,236.5c-3.3,0.5-6.2-2.4-5.8-5.7
				c0.3-2.2,2-3.8,4.2-4.2c3.3-0.5,6.2,2.4,5.8,5.7C169,234.4,167.3,236.2,165.2,236.5z M165.3,199.5c-3.3,0.5-6.2-2.4-5.8-5.7
				c0.3-2.2,2-3.8,4.2-4.2c3.3-0.5,6.2,2.4,5.8,5.7C169.1,197.5,167.4,199.3,165.3,199.5z M165.4,165.1c-3.3,0.5-6.2-2.4-5.8-5.7
				c0.3-2.2,2-3.8,4.2-4.2c3.3-0.5,6.2,2.4,5.8,5.7C169.3,163,167.5,164.8,165.4,165.1z M165.5,128.3c-3.3,0.5-6.2-2.4-5.8-5.7
				c0.3-2.2,2-3.8,4.2-4.2c3.3-0.5,6.2,2.4,5.8,5.7C169.3,126.1,167.6,127.9,165.5,128.3z"/>
			<path class="st3" d="M324.5,124c-18.4,38-71.3,133.5-155.2,174.4c0,0.2,0.1,0.4,0,0.7c0,2.7-2.3,5-5,5c-1.4,0-2.8-0.6-3.7-1.7
				c-5.3,2.3-10.6,4.3-16.2,6.1l0,11.7c0,4.1,3.2,7.2,7.3,7.2l172.2,0.4L324.5,124z"/>
			<path class="st4" d="M144.8,143.1c-6.1-1.8-10.4-6.8-10.3-12.3c0-7.2,7-13.2,15.8-13.2c7.2,0,13.3,4,15.1,9.5"/>
			<path class="st4" d="M144.7,178.3c-6.1-1.8-10.4-6.8-10.3-12.3c0-7.2,7-13.2,15.8-13.2c7.2,0,13.3,4,15.1,9.5"/>
			<path class="st4" d="M144.6,214.1c-6.1-1.8-10.4-6.8-10.3-12.3c0-7.2,7-13.2,15.8-13.2c7.2,0,13.3,4,15.1,9.5"/>
			<path class="st4" d="M144.5,249.4c-6.1-1.8-10.4-6.8-10.3-12.3c0-7.2,7-13.2,15.8-13.2c7.2,0,13.3,4,15.1,9.5"/>
			<path class="st4" d="M144.4,280c-6.1-1.8-10.4-6.8-10.3-12.3c0-7.2,7-13.2,15.8-13.2c7.2,0,13.3,4,15.1,9.5"/>
			<path class="st4" d="M144.4,316.6c-6.1-1.8-10.4-6.8-10.3-12.3c0-7.2,7-13.2,15.8-13.2c7.2,0,13.3,4,15.1,9.5"/>
			<line class="st5" x1="181.6" y1="127.9" x2="294.8" y2="128.1"/>
			<line class="st5" x1="181.5" y1="164.1" x2="294.7" y2="164.3"/>
			<line class="st5" x1="181.4" y1="197.9" x2="294.6" y2="198.2"/>
			<line class="st5" x1="181.6" y1="231.2" x2="294.9" y2="231.5"/>
			<line class="st5" x1="181.3" y1="264.5" x2="294.5" y2="264.7"/>
			<line class="st5" x1="181.2" y1="300.6" x2="294.5" y2="300.9"/>
		</g>
		<g>
			<g>
				<path class="st6" d="M370.2,206.7c-0.4,0.6-0.6-1.7-1.4-1.4c-10.9,4.3-19-5.6-19.7-10.7c-0.7-5-12-2.1-12-10.9
					c0-8.9,4.1-11.4,3.7-16c0,0,0.6-1.1,1.5-2.4c1.8-2.7,5-6.3,6.9-2.4c2.8,5.9,4.8,5.4,10.6,6.5c5.8,1.1,8.2,5.3,6.2,8.1
					c-2.4,3.4-0.2,4,5.2,7.5C382,191.9,375.3,198.6,370.2,206.7z"/>
				<path class="st7" d="M370.1,205.3c-0.6,0.3-1.3,0.6-2,0.9c-10.9,4.3-18.2-6.6-18.9-11.7c-0.7-5-12-2.1-12-10.9
					c0-8.9,4.1-11.4,3.7-16c0,0,0.6-1.1,1.5-2.4c7.5,2.9,9.5,7.1,8.5,10.6c-1.3,4.4,2.1,6.6,10.4,11.8
					C371.2,193.8,370.5,200.3,370.1,205.3z"/>
			</g>
			<g>
				<path class="st6" d="M358.3,168.4c-4.2,6.8-32-3.3-32-3.3c-4.5-1.7-6.7-1.1-6.4-3.9c0.3-2.8,3.3-5.1,3.5-8
					c0.1-1.1,0.8-2.3,0.8-3.9c0.1-2.6,1.9-5.4,5.5-7.3c2.6-1.4,6.8-1.6,10-0.3c2.3,1,5-0.1,7.5-0.3c2-0.2,4.8,0.2,8.2,2.3
					c3.6,2.2,5.4,8.1,5.8,12.4C361.5,160.4,360.4,165,358.3,168.4z"/>
				<path class="st7" d="M358.3,168.4c-4.2,6.8-26.9,12.6-26.9,12.6c-4.5-1.7-13.2-8-11.5-19.8c0.4-2.8,2.9-5,3.4-7.7
					c0.2-1.1,0.8-2.7,0.9-4.3c6.6-6,16.1-4.1,20.6,0.2c4.7,4.5,9.2,13.2,16.3,6.6C361.5,160.4,360.4,165,358.3,168.4z"/>
			</g>
			<g>
				<path class="st8" d="M351.2,191.7c0,0-1.1,6.7-8.2,8.8c-7.1,2.2-10.2-1.1-10.3-4.3c0-0.2,0-0.4,0-0.7c-0.1-3.5,0.1-7.3-0.2-14.2
					c0-1.1,0.1-2.3,0.4-3.5c1.7-7,12.7-16.5,14.2-4.3C348,180.1,351.2,191.7,351.2,191.7z"/>
				<path class="st9" d="M332.8,195.6c-0.1-3.5,0.1-7.3-0.2-14.2c0-1.1,0.1-2.3,0.4-3.5c3.8,0.4,8.7,2.2,8.9,5.8
					C342.2,189.3,340.9,195.4,332.8,195.6z"/>
				<g>
					<path class="st8" d="M332.1,186.5c5.5,0.4,14.2-3.2,21.1-12.9c3.3-4.6-1.5-4.8-2.7-7.2c-1.2-2.4-1.3-3.2-2-5.1
						c-1.3-3.9-6-9.6-9.3-9.6c-5.4,0-13.6,1.5-15.9,15.4c-0.2,1.5-0.2,6.1,0.5,9.4C325.1,182.7,328.5,186.3,332.1,186.5z"/>
				</g>
				<path class="st10" d="M349.9,171.7c0,0,1.3-5.5,5.4-2.7"/>
				<path class="st10" d="M353.7,171.6c0,0,0.7-2.4-1.1-3.4"/>
			</g>
			<path class="st8" d="M348.5,169c0.5-4.9,7.5-8.3,9.5-1.7c1.8,5.7-4.4,7-7.9,6.7L348.5,169z"/>
			<path class="st11" d="M328.6,164.8c0.1,0.8-0.2,1.6-0.6,1.6c-0.5,0.1-0.9-0.6-1-1.4c-0.1-0.8,0.2-1.6,0.6-1.6
				C328,163.3,328.5,164,328.6,164.8z"/>
			<path class="st9" d="M339.4,171.9c0.8,2.3,3.2,3.5,5.5,2.7c2.3-0.8,3.5-3.2,2.7-5.5c-0.8-2.3-3.2-3.5-5.5-2.7
				C339.9,167.2,338.7,169.6,339.4,171.9z"/>
			<path class="st10" d="M330.4,166.9c0,0-1.8,4.9-1.4,6c0.3,1.1,2.8-0.3,2.8-0.3"/>
			<path class="st9" d="M323.1,168.6c0-0.2,0-0.5,0-0.7c1.8,0,2.7,0.8,3.4,2.6c0.8,2.3-0.5,4.8-2.8,5.6
				C323.7,176.1,323.1,173.8,323.1,168.6z"/>
			<path class="st11" d="M328.5,160c0,0,0.4-0.3-0.3-0.6c-0.7-0.3-2.6-0.6-3.8,0.6c0,0-0.4,0.4,0.3,0.6
				C325.1,160.6,327.4,160.8,328.5,160z"/>
			<path class="st11" d="M334.8,159.3c0,0-0.4-0.3,0.3-0.6c0.7-0.4,2.5-0.8,3.9,0.3c0,0,0.5,0.4-0.3,0.6
				C338.3,159.7,336,160,334.8,159.3z"/>
			<path class="st10" d="M350.5,169.7c0,0,1.7-5.1,5.8-1.5"/>
			<path class="st10" d="M354.1,170.7c0,0,1.1-2.5-0.7-3.8"/>
			<path class="st11" d="M337.6,164.4c0.1,0.8-0.2,1.6-0.6,1.6c-0.5,0.1-0.9-0.6-1-1.4c-0.1-0.8,0.2-1.6,0.6-1.6
				C337,162.9,337.4,163.6,337.6,164.4z"/>
			<path class="st12" d="M332.1,175.7c2.1-0.4,4.6-1.5,4.6-1.5s0.4,2.9-1.5,3.4C333.2,178.1,332.2,176.3,332.1,175.7z"/>
			<path class="st13" d="M331.7,430.2c0,6.2,1.8,15.5-2.2,15.4c-3.3,0-36.5-0.1-37.9-0.1c-1.5,0-1.1-4.2,3-5.2c4-1,17-7.8,18-10.2
				L331.7,430.2z"/>
			<line class="st14" x1="332.1" y1="441.9" x2="306.7" y2="441.7"/>
			<path class="st13" d="M373.5,430.2c0,6.2-1.8,15.5,2.2,15.4c3.3,0,36.5-0.1,37.9-0.1c1.5,0,1.1-4.2-3-5.2c-4-1-17-7.8-18-10.2
				L373.5,430.2z"/>
			<line class="st14" x1="373.2" y1="441.9" x2="398.5" y2="441.7"/>
			<path class="st15" d="M396.9,428.9c0.2,1-0.4,1.9-1.4,2.3c-1.9,0.9-5.6,2-11.4,2c-8,0-11.8-1.8-13.2-2.8
				c-0.5-0.3-0.8-0.8-0.9-1.3l-33-134.2c0,0-3.4,40.6-3.6,49.2c-0.1,7.2-1,74-0.5,84.5c0,0.9-0.6,1.6-1.5,1.9
				c-2.2,0.7-6.3,1.8-10.2,1.8c-3.7,0-7.3-1.2-9.1-1.9c-0.7-0.3-1.2-0.9-1.3-1.6c-1-8.2-6.7-59.5-8.1-74.5
				c-1.3-13.8-1.6-27.4-2.3-38.1c-0.1-1.9-0.2-3.7-0.3-5.3c-0.3-10.9,0.4-34.1,7.2-49.7l48.6-0.9l10.4-0.2c-1.3,6.3,0.9,13.5,2,19
				C369.5,284.3,394,413.7,396.9,428.9z"/>
			<g>
				<path class="st14" d="M359.4,266.2c0.7,8.3,7.2,11.7,7.2,11.7"/>
				<path class="st14" d="M302.7,277.9c6.5-1.2,7.6-10.7,7.7-11.3"/>
				<path class="st14" d="M334.6,266.5c-0.7,5.2-0.4,11.4-0.4,11.4"/>
				<path class="st14" d="M334.6,280.4c3.4-1.2,5-1,5.1-2.1c0.2-1.1,0.8-11.8,0.8-11.8"/>
			</g>
			<polygon class="st16" points="337,294.9 332.4,287.3 333.1,367.5 			"/>
			<g id="torso_3_">
				<g>
					<path class="st17" d="M295,197.8l-11.1,16.1c-3.8,5.1-7.4,8.8-9.7,11.8c-3.2,4.2-4,7.2,0,11.2l0,0c0,0,0,0,0,0
						c0.1,0,0.1,0.1,0.2,0.1c0.2,0.2,0.5,0.3,0.7,0.4c0.2,0.1,0.3,0.2,0.5,0.3c0.2,0.1,0.4,0.2,0.6,0.4c0.3,0.2,0.6,0.3,0.9,0.4
						c0.5,0.2,1,0.5,1.5,0.6c0.2,0.1,0.4,0.1,0.6,0.2c0.9,0.3,1.8,0.5,2.6,0.6c0.2,0,0.3,0.1,0.5,0.1c1.5,0.2,2.8,0.1,4-0.2
						c0.4-0.1,0.7-0.2,1.1-0.3c1-0.3,1.9-0.6,2.6-1c0.1-0.1,0.3-0.1,0.4-0.2c0.2-0.1,0.3-0.2,0.5-0.3c0.1-0.1,0.3-0.2,0.4-0.2
						c0.8-0.5,1.4-1.1,1.8-1.5c2.2-2.4,24-27.6,24-27.6l1.7-3.5l2.3-4.7L295,197.8z"/>
					<path class="st18" d="M293.1,236.4c2.2-2.4,24-27.6,24-27.6l1.7-3.5c-6.6,1.7-4.3-8.7-6.3-1L293.1,236.4z"/>
				</g>
				<g>
					<g>
						<g>
							<path class="st17" d="M314.9,197.3c0.1,1.5-2.4,5.5-2.4,7.1c0,15.1-9.2,53.9-8.5,57.2c0.9,4.7,14.1-0.1,22.1,5.2
								c7.8,5.2,17.2-0.6,20,0.6c5.7,2.4,15.7,1,16.7-1.1c0.9-2.1-1.2-15.5-1.2-15.5l1.9,0.1l20.2,5.6c-1-11.3-2.2-29.6-6.4-40.5
								c-2.3-5.9-7.8-14.7-12.4-19.4c-1.6-1.6-10.3-5.2-12.5-4.4c-3.2,1.1-2.2,5.6-7.1,5.6C336.4,197.8,314.9,197.3,314.9,197.3z"/>
							<path class="st18" d="M383.6,251.6c4.5,21-32.3,33.5-32.6-21.6C363.4,212.9,379.9,229,383.6,251.6z"/>
						</g>
					</g>
					<path class="st19" d="M313.2,197.8c0.3,4.1-1.3,13.5-1.7,18"/>
				</g>
			</g>
			<g id="hnad_1_">
				<path class="st17" d="M250,190.3c0,0,3.2,8.2,7.2,17.6c3.3,7.8,7.3,16.4,10.5,22c0.2,0.4,0.5,0.8,0.8,1.2
					c0.1,0.2,0.2,0.4,0.3,0.5c0.1,0.2,0.2,0.3,0.3,0.4c0.2,0.3,0.4,0.5,0.5,0.7c0.2,0.3,0.4,0.5,0.6,0.7c0.1,0.1,0.1,0.1,0.1,0.2
					c0.2,0.2,0.3,0.4,0.5,0.6c0,0,0.1,0.1,0.1,0.1c0.2,0.2,0.4,0.4,0.6,0.7c0,0,0,0,0.1,0.1c9.7,6.6,16.2,4.2,18.1-2.5
					c1.3-4.7,0.2-11.5-3.7-18.7l-19.9-29L250,190.3z"/>
				<path class="st19" d="M286.1,214c1.4,2.1,3.5,6.1,3.5,6.1"/>
			</g>
			<g>
				<path class="st20" d="M218.4,159.8l7.8,7.5l11.7,11.4c0,0,101.5,38.9,150.2,57.5c13.4,5.1,22.8,8.7,25,9.5
					c7.3,2.7,15.3-15.1,6.9-18.9c-0.7-0.3-9.9-4-23.9-9.5c-48-18.9-151.5-59.4-151.5-59.4l-15.3,1.1L218.4,159.8z"/>
				<g>
					<line class="st21" x1="379" y1="218.2" x2="250.6" y2="167.3"/>
					<line class="st21" x1="374.8" y1="224.7" x2="247.5" y2="174.3"/>
				</g>
				<path class="st22" d="M229.3,159.1c0,3-1.1,5.9-3.1,8.3l11.7,11.4c0,0,4.5-2.5,1.4-7.3c3.5-0.3,5.9-4,1.7-6.7
					c0,0,5.3-1.4,3.5-6.8L229.3,159.1z"/>
				<path class="st16" d="M218.4,159.8l7.8,7.5c1.9-2.4,3.1-5.3,3.1-8.3L218.4,159.8z"/>
				<path class="st21" d="M396.1,217.4c-2.7,6.3-5.6,13.2-8,18.8c13.4,5.1,22.8,8.7,25,9.5c7.3,2.7,15.3-15.1,6.9-18.9
					C419.4,226.6,410.1,222.9,396.1,217.4z"/>
			</g>
			<g>
				<path class="st8" d="M264.4,191.6c1.4-9.9,0.4-11.3-0.7-11.5c-1.1-0.2-2.5,4.5-2.8,5.9c0,0,0.7-8.1-1.3-9c-2-1-2.8,2.5-2.8,2.5
					s-1.9-3.1-3.9,0.9c0,0-1-1.6-2.1,0.4c-1.1,2-1.4,10.1,0.9,11.6C254,193.7,263.7,196.4,264.4,191.6z"/>
				<path class="st23" d="M264.9,187.4c0.6-6.1-0.3-7.1-1.2-7.2c-1.1-0.2-2.5,4.5-2.8,5.9c0,0,0.7-8.1-1.3-9c-2-1-2.8,2.5-2.8,2.5
					s-1.9-3.1-3.9,0.9c0,0-1-1.6-2.1,0.4"/>
				<line class="st23" x1="256.8" y1="179.4" x2="256.7" y2="187.5"/>
				<line class="st23" x1="252.9" y1="187.8" x2="252.9" y2="180.3"/>
			</g>
			<line class="st23" x1="260.9" y1="186" x2="260.6" y2="188.5"/>
			<g id="hand_26_">
				<path class="st24" d="M333.4,231c0-0.3,1.6-5,5.9-9l4.6,7.2C343.9,229.2,337.4,234.3,333.4,231z"/>
				<g>
					<path class="st8" d="M351.1,217.8c-1.9-1.5-4.6-3.9-4.9-4.3c-0.3-0.5-1.7-4.5-2.4-6.1c-0.7-1.6-3.7-8-4.4-8
						c-0.7,0-1.8,1.4-1.5,3c0,0-4.1-5.8-6.3-7.5c-1.8-1.4-2.6,0.6-1.8,2.3c-1.5-2.2-4.6-2.8-3,0.9c-1.7-1.5-3.6-0.7-2,3.3
						c-1.1-1.9-3-1.4-2.4,1.1c0.9,4.1,4.8,9.2,6,10.8c1.2,1.6,10,10.2,12.6,14.9C341,228.2,348.2,224.2,351.1,217.8z"/>
					<path class="st23" d="M343.8,207.4c-0.7-1.6-3.7-8-4.4-8c-0.7,0-1.8,1.4-1.5,3c0,0-4.1-5.8-6.3-7.5c-1.8-1.4-2.6,0.6-1.8,2.3
						c-1.5-2.2-4.6-2.8-3,0.9c-1.7-1.5-3.6-0.7-2,3.3c-1.1-1.9-3-1.4-2.4,1.1"/>
					<line class="st23" x1="337.9" y1="202.4" x2="339.8" y2="205.6"/>
					<line class="st23" x1="329.8" y1="197.2" x2="334" y2="203.5"/>
					<line class="st23" x1="326.8" y1="198.1" x2="331.1" y2="205.3"/>
					<line class="st23" x1="324.9" y1="201.4" x2="328.1" y2="207.3"/>
					<path class="st17" d="M349.5,214c9.5,7.4,26,21.9,33.6,40.4c2.9,7.2-7.3,23.4-21,12.9c-13.7-10.4-28.7-36.4-28.7-36.4
						S339.9,233.3,349.5,214z"/>
					<path class="st19" d="M354.2,259.9c-11-12-20.8-28.9-20.8-28.9s6.5,2.3,16.1-17c5.4,4.2,13.1,10.7,20.1,18.9"/>
				</g>
			</g>
		</g>
		<line class="st25" x1="434.6" y1="445.7" x2="83.8" y2="445.7"/>
		<g>
			<path class="st1" d="M420.4,125.9h-28.3c-2.7,0-4.9,2.2-4.9,4.9v14.6l-5.2,8.7c-0.4,0.7,0.2,1.7,1.1,1.4l8.4-2.3
				c0.2,0,0.4,0,0.6,0h28.3c2.7,0,4.9-2.2,4.9-4.9v-17.6C425.3,128.1,423.1,125.9,420.4,125.9z"/>
			<path class="st26" d="M400.5,140.8c0,1.2-1,2.1-2.1,2.1c-1.2,0-2.1-1-2.1-2.1c0-1.2,1-2.1,2.1-2.1
				C399.6,138.6,400.5,139.6,400.5,140.8z"/>
			<path class="st26" d="M408.9,140.8c0,1.2-1,2.1-2.1,2.1c-1.2,0-2.1-1-2.1-2.1c0-1.2,1-2.1,2.1-2.1
				C407.9,138.6,408.9,139.6,408.9,140.8z"/>
			<path class="st26" d="M417.1,140.8c0,1.2-1,2.1-2.1,2.1c-1.2,0-2.1-1-2.1-2.1c0-1.2,1-2.1,2.1-2.1
				C416.1,138.6,417.1,139.6,417.1,140.8z"/>
		</g>
		<g>
			<path class="st2" d="M140.6,403.8c0,0,2.3-8.6-4.5-10.6c-6.8-2-16-1.9-18.6,4c-2.6,5.9,5.2,5.6,10.5,5.2
				C133.3,402,135.7,410.9,140.6,403.8z"/>
			<path class="st2" d="M142.5,380.4c0,0,3.2-2.9,2.9-12.9c-0.3-10-5.1-26.6-13.1-22.8c-8,3.7-3.9,23.5,0.4,30.8
				C136.9,382.8,142.5,380.4,142.5,380.4z"/>
			<path class="st27" d="M135.7,357.6c0,0,12,38.9,10.6,66.3c0,0-1-26-19.3-27.6"/>
			<path class="st2" d="M162.2,399.6c0,0-5.7-6.9-0.3-11.5c5.3-4.6,13.7-8.4,18.5-4.1c4.8,4.3-2.4,7.3-7.4,9.1
				C168.2,394.9,169.7,403.9,162.2,399.6z"/>
			<path class="st27" d="M175,386.5c0,0-21.1,6.5-19.5,31.7"/>
			<path class="st28" d="M164,416.9h-29.8c-1.1,0-1.9,0.9-1.9,1.9v2.8c0,1.1,0.9,1.9,1.9,1.9H164c1.1,0,1.9-0.9,1.9-1.9v-2.8
				C165.9,417.8,165.1,416.9,164,416.9z"/>
			<path class="st28" d="M137.6,445.7l23.5,0c1.1,0,1.9-0.9,1.9-1.9l-0.1-20.4h-27.3l0.1,20.4C135.7,444.8,136.6,445.7,137.6,445.7z
				"/>
			<line class="st29" x1="162.9" y1="423.7" x2="138.3" y2="423.7"/>
		</g>
		<g>
			<path class="st30" d="M82.8,177.4c2.2-1.2,6.7-2.1,6.4-8.1c0-0.8,1.2-0.9,1.6-0.2c1.3,2.3,2.5,6.7,7.9,7.7
				c0.7,0.1,0.8,1.3,0.2,1.5c-4.8,1.4-5.4,4.3-6.6,7.8c-0.3,0.7-1.2,0.9-1.6,0.2c-1.3-2.5-1.4-5.9-7.7-7.2
				C82.2,178.9,82.1,177.8,82.8,177.4z"/>
			<path class="st30" d="M232.2,61.6c1.4-0.7,4.2-1.2,4-4.7c0-0.5,0.8-0.5,1-0.1c0.8,1.3,1.6,3.9,4.9,4.4c0.4,0.1,0.5,0.8,0.1,0.9
				c-3,0.8-3.4,2.5-4.1,4.5c-0.2,0.4-0.8,0.5-1,0.1c-0.8-1.4-0.9-3.4-4.8-4.2C231.8,62.5,231.7,61.8,232.2,61.6z"/>
			<path class="st30" d="M227.9,359.9c1.8-1,5.6-1.7,5.3-6.7c0-0.7,1-0.7,1.3-0.2c1,1.9,2.1,5.5,6.5,6.3c0.6,0.1,0.7,1.1,0.1,1.3
				c-3.9,1.2-4.5,3.5-5.4,6.4c-0.2,0.6-1,0.7-1.3,0.1c-1.1-2-1.2-4.9-6.3-5.9C227.4,361.1,227.3,360.2,227.9,359.9z"/>
			<path class="st30" d="M432.4,196.5c0,2.4-2,4.4-4.4,4.4c-2.4,0-4.4-2-4.4-4.4c0-2.4,2-4.4,4.4-4.4
				C430.4,192.1,432.4,194.1,432.4,196.5z"/>
			<path class="st30" d="M84.5,300.9c0,3-2.5,5.5-5.5,5.5c-3,0-5.5-2.5-5.5-5.5c0-3,2.5-5.5,5.5-5.5C82,295.4,84.5,297.8,84.5,300.9
				z"/>
		</g>
	</g>
</g>
</svg>
